<svg xmlns="http://www.w3.org/2000/svg" width="201" height="50" viewBox="0 0 201 50">
    <g fill="none" fill-rule="nonzero">
        <g fill="#00ADEA">
            <path d="M.096 40.603L17.65.19l18.058 40.414H.096zm8.223-5.247h2.716l2.732-6.4h8.221l2.73 6.4h2.716L17.86 13.654 8.319 35.356z"/>
            <path d="M17.861 19.145l-3.349 7.685h6.698z"/>
        </g>
        <path fill="#0295C9" d="M35.753 40.476L6.39 50l-.08-9.524M6.473 25.893L6.31 7.143l5.709 6.245"/>
        <path fill="#FFF" d="M37.857 35.41V14.584h4.347c1.532 0 2.66.078 3.388.234.727.156 1.351.424 1.875.805a4.957 4.957 0 0 1 1.546 1.9c.366.772.549 1.62.549 2.538 0 1.102-.263 2.02-.791 2.762s-1.296 1.256-2.302 1.551c1.236.19 2.212.742 2.93 1.66.719.911 1.076 2.071 1.076 3.46 0 .836-.152 1.633-.456 2.393a5.695 5.695 0 0 1-1.269 1.947c-.589.578-1.316.983-2.18 1.223-.865.24-2.319.36-4.364.36h-4.35v-.005zm2.423-18.677v6.972h1.926c1.768 0 3.014-.256 3.737-.768.723-.512 1.082-1.375 1.082-2.59 0-1.338-.334-2.274-1.004-2.81-.67-.536-1.94-.804-3.815-.804H40.28zm0 8.919v7.597h1.926c1.322 0 2.275-.05 2.86-.154.586-.106 1.054-.287 1.405-.543.427-.305.764-.725 1.012-1.266.247-.54.37-1.14.37-1.793 0-.756-.146-1.416-.44-1.977a3.23 3.23 0 0 0-1.283-1.31 3.484 3.484 0 0 0-1.154-.427c-.437-.089-1.117-.127-2.04-.127H40.28zM70.36 23.692c1.374.577 2.407 1.34 3.107 2.294.695.956 1.044 2.08 1.044 3.38 0 1.909-.616 3.439-1.854 4.604-1.235 1.166-2.869 1.744-4.907 1.744-1.661 0-3.056-.415-4.181-1.25-1.123-.832-1.883-2.018-2.278-3.556l2.278-1.104c.307 1.255.814 2.206 1.521 2.85.706.644 1.593.97 2.66.97 1.26 0 2.277-.357 3.056-1.068.778-.71 1.166-1.64 1.166-2.776 0-.923-.272-1.732-.816-2.417-.543-.68-1.361-1.257-2.457-1.732l-2.566-1.073c-1.404-.575-2.45-1.318-3.137-2.223-.687-.905-1.03-1.99-1.03-3.254 0-1.47.557-2.687 1.673-3.65 1.115-.962 2.537-1.443 4.266-1.443 1.269 0 2.367.265 3.293.795.928.527 1.65 1.306 2.17 2.332L71.29 18.42c-.473-.802-1-1.4-1.586-1.79a3.501 3.501 0 0 0-1.988-.587c-.943 0-1.713.285-2.313.85-.602.566-.901 1.287-.901 2.163 0 .735.23 1.373.691 1.911.463.54 1.177 1.015 2.149 1.43l3.016 1.296zM89.784 35.417v-18.47h-5.959v-2.364h14.422v2.363h-5.932v18.47zM109.363 35.417V14.583h4.899c1.39 0 2.415.078 3.063.234a4.416 4.416 0 0 1 1.714.805c.621.484 1.097 1.132 1.441 1.941.34.812.513 1.712.513 2.697 0 1.71-.476 3.007-1.433 3.888-.954.89-2.35 1.33-4.19 1.33h-.44l7.953 9.937h-3.147l-7.597-9.936h-.356v9.936h-2.42v.002zm2.416-18.741v6.97h1.894c1.934 0 3.232-.248 3.888-.744.648-.498.982-1.369.982-2.61 0-1.337-.34-2.276-1.009-2.81-.677-.536-1.962-.806-3.86-.806h-1.895zM139.69 13.69l9.633 21.727h-2.73l-2.75-6.408h-8.271l-2.745 6.408h-2.733l9.596-21.727zm0 5.498l-3.368 7.693h6.74l-3.372-7.693zM176.36 19.497c-1.002-1.087-2.078-1.892-3.217-2.411-1.146-.522-2.4-.782-3.777-.782a8.26 8.26 0 0 0-3.256.674 8.317 8.317 0 0 0-2.751 1.875 8.484 8.484 0 0 0-1.81 2.784c-.4 1.027-.602 2.162-.602 3.403 0 .972.122 1.867.36 2.692.238.82.597 1.575 1.077 2.262.844 1.194 1.879 2.112 3.107 2.757a8.44 8.44 0 0 0 3.988.968c1.34 0 2.586-.279 3.738-.83 1.156-.55 2.197-1.381 3.146-2.476v3.308a11.968 11.968 0 0 1-3.37 1.711c-1.203.388-2.448.58-3.725.58-1.11 0-2.196-.165-3.247-.495-1.051-.33-2.04-.808-2.954-1.438-1.535-1.062-2.71-2.363-3.519-3.91-.808-1.544-1.212-3.244-1.212-5.098 0-1.613.271-3.081.81-4.403.545-1.324 1.368-2.524 2.48-3.6 1.07-1.032 2.258-1.803 3.56-2.313 1.304-.511 2.725-.767 4.268-.767 1.213 0 2.392.184 3.531.553 1.144.369 2.263.936 3.378 1.712v3.246l-.004-.002zM192.538 35.417v-18.47h-5.96v-2.364H201v2.363h-5.929v18.47z"/>
    </g>
</svg>
